<svg width="560" height="155" viewBox="0 0 560 155" fill="none" xmlns="http://www.w3.org/2000/svg">
<path d="M80.2784 124V30.9091H99.9602V107.773H139.869V124H80.2784ZM152.903 30.9091H177.176L202.812 93.4545H203.903L229.54 30.9091H253.812V124H234.722V63.4091H233.949L209.858 123.545H196.858L172.767 63.1818H171.994V124H152.903V30.9091ZM270.028 124V30.9091H307.301C314.15 30.9091 319.862 31.9242 324.438 33.9545C329.013 35.9848 332.453 38.803 334.756 42.4091C337.059 45.9848 338.21 50.1061 338.21 54.7727C338.21 58.4091 337.483 61.6061 336.028 64.3636C334.574 67.0909 332.574 69.3333 330.028 71.0909C327.513 72.8182 324.634 74.0455 321.392 74.7727V75.6818C324.938 75.8333 328.256 76.8333 331.347 78.6818C334.468 80.5303 336.998 83.1212 338.938 86.4545C340.877 89.7576 341.847 93.697 341.847 98.2727C341.847 103.212 340.619 107.621 338.165 111.5C335.741 115.348 332.15 118.394 327.392 120.636C322.634 122.879 316.771 124 309.801 124H270.028ZM289.71 107.909H305.756C311.241 107.909 315.241 106.864 317.756 104.773C320.271 102.652 321.528 99.8333 321.528 96.3182C321.528 93.7424 320.907 91.4697 319.665 89.5C318.422 87.5303 316.65 85.9848 314.347 84.8636C312.074 83.7424 309.362 83.1818 306.21 83.1818H289.71V107.909ZM289.71 69.8636H304.301C306.998 69.8636 309.392 69.3939 311.483 68.4545C313.604 67.4848 315.271 66.1212 316.483 64.3636C317.725 62.6061 318.347 60.5 318.347 58.0455C318.347 54.6818 317.15 51.9697 314.756 49.9091C312.392 47.8485 309.028 46.8182 304.665 46.8182H289.71V69.8636ZM440.199 77.4545C440.199 87.6061 438.275 96.2424 434.426 103.364C430.608 110.485 425.396 115.924 418.79 119.682C412.214 123.409 404.82 125.273 396.608 125.273C388.335 125.273 380.911 123.394 374.335 119.636C367.759 115.879 362.563 110.439 358.744 103.318C354.926 96.197 353.017 87.5758 353.017 77.4545C353.017 67.303 354.926 58.6667 358.744 51.5455C362.563 44.4242 367.759 39 374.335 35.2727C380.911 31.5151 388.335 29.6364 396.608 29.6364C404.82 29.6364 412.214 31.5151 418.79 35.2727C425.396 39 430.608 44.4242 434.426 51.5455C438.275 58.6667 440.199 67.303 440.199 77.4545ZM420.244 77.4545C420.244 70.8788 419.259 65.3333 417.29 60.8182C415.35 56.303 412.608 52.8788 409.062 50.5455C405.517 48.2121 401.366 47.0455 396.608 47.0455C391.85 47.0455 387.699 48.2121 384.153 50.5455C380.608 52.8788 377.85 56.303 375.881 60.8182C373.941 65.3333 372.972 70.8788 372.972 77.4545C372.972 84.0303 373.941 89.5758 375.881 94.0909C377.85 98.6061 380.608 102.03 384.153 104.364C387.699 106.697 391.85 107.864 396.608 107.864C401.366 107.864 405.517 106.697 409.062 104.364C412.608 102.03 415.35 98.6061 417.29 94.0909C419.259 89.5758 420.244 84.0303 420.244 77.4545ZM468.858 30.9091L487.631 62.6364H488.358L507.222 30.9091H529.449L501.04 77.4545L530.085 124H507.449L488.358 92.2273H487.631L468.54 124H445.994L475.131 77.4545L446.54 30.9091H468.858Z" fill="#192D77"/>
<path d="M8.27841 124H6.77841V125.5H8.27841V124ZM8.27841 30.9091V29.4091H6.77841V30.9091H8.27841ZM27.9602 30.9091H29.4602V29.4091H27.9602V30.9091ZM27.9602 107.773H26.4602V109.273H27.9602V107.773ZM67.8693 107.773H69.3693V106.273H67.8693V107.773ZM67.8693 124V125.5H69.3693V124H67.8693ZM9.77841 124V30.9091H6.77841V124H9.77841ZM8.27841 32.4091H27.9602V29.4091H8.27841V32.4091ZM26.4602 30.9091V107.773H29.4602V30.9091H26.4602ZM27.9602 109.273H67.8693V106.273H27.9602V109.273ZM66.3693 107.773V124H69.3693V107.773H66.3693ZM67.8693 122.5H8.27841V125.5H67.8693V122.5Z" fill="#192D77"/>
<path d="M508.5 77.5L536.217 30.9055L558.5 30.9055L530 77.4981L559.086 124L536.5 124L508.5 77.5Z" fill="#192D77"/>
</svg>
