<svg width="125" height="132" viewBox="0 0 125 132" fill="none" xmlns="http://www.w3.org/2000/svg">
<path d="M40.86 105.14H53.305V30.077H34.441V45.273H20.948V21.562H103.871V45.273H90.378V30.077H71.514V105.14H83.959V113H40.86V105.14Z" fill="black"/>
<path d="M97 4C103.932 4 110.864 4 117.796 4C118.431 4 119.066 4 119.7 4C120.033 4 120.366 4 120.699 4C121.156 4 120.956 27.6903 120.957 28" stroke="black" stroke-width="7" stroke-linecap="round"/>
<path d="M4 28C4 21.0679 4 14.1357 4 7.2036C4 6.5689 4 5.9342 4 5.2996C4 4.9668 4 4.6341 4 4.3013C4 3.8438 27.6903 4.0436 28 4.0425" stroke="black" stroke-width="7" stroke-linecap="round"/>
<path d="M97 128C103.932 128 110.864 128 117.796 128C118.431 128 119.066 128 119.7 128C120.033 128 120.366 128 120.699 128C121.156 128 120.956 104.31 120.957 104" stroke="black" stroke-width="7" stroke-linecap="round"/>
<path d="M47 101H37V118H47V101Z" fill="white"/>
<path d="M88 101H78V118H88V101Z" fill="white"/>
<path d="M4 104C4 110.932 4 117.864 4 124.796C4 125.431 4 126.066 4 126.7C4 127.033 4 127.366 4 127.699C4 128.156 27.6903 127.956 28 127.957" stroke="black" stroke-width="7" stroke-linecap="round"/>
<path d="M104 16H21V26H104V16Z" fill="black"/>
<path d="M78 109H47V119H78V109Z" fill="black"/>
</svg>
