<svg width="84" height="84" viewBox="0 0 84 84" fill="none" xmlns="http://www.w3.org/2000/svg">
<path d="M25.3713 25.3711H58.7426V58.7423H25.3713V25.3711Z" fill="white"/>
<path d="M42.0571 0.342773C19.0309 0.342773 0.343018 19.0307 0.343018 42.0568C0.343018 65.083 19.0309 83.7709 42.0571 83.7709C65.0833 83.7709 83.7711 65.083 83.7711 42.0568C83.7711 19.0307 65.0833 0.342773 42.0571 0.342773ZM42.0571 75.4281C23.6612 75.4281 8.68583 60.4527 8.68583 42.0568C8.68583 23.6609 23.6612 8.68559 42.0571 8.68559C60.453 8.68559 75.4283 23.6609 75.4283 42.0568C75.4283 60.4527 60.453 75.4281 42.0571 75.4281Z" fill="white"/>
</svg>
